<?xml version="1.0" encoding="utf-8"?>
<!-- Generator: Adobe Illustrator 21.0.0, SVG Export Plug-In . SVG Version: 6.00 Build 0)  -->
<svg version="1.1" id="Layer_1" xmlns="http://www.w3.org/2000/svg" xmlns:xlink="http://www.w3.org/1999/xlink" x="0px" y="0px"
	 viewBox="0 0 352 85.6" style="enable-background:new 0 0 352 85.6;" xml:space="preserve">
  <style type="text/css">.st0{fill:#446CB3;}
    .st1{fill:#F62459;}
    .st2{font-family:'MyriadPro-Regular';}
    .st3{font-size:72px;}</style>
  <g>
    <path class="st0" d="M60.4,60.7c-2.3,1.2-6.9,2.3-12.8,2.3c-13.7,0-24-8.6-24-24.6c0-15.2,10.3-25.5,25.3-25.5
		c6,0,9.9,1.3,11.5,2.2l-1.5,5.1c-2.4-1.2-5.8-2-9.8-2c-11.4,0-18.9,7.3-18.9,20c0,11.9,6.8,19.5,18.6,19.5c3.8,0,7.7-0.8,10.2-2
		L60.4,60.7z"/>
    <path class="st0" d="M98.8,44.6c0,12.9-8.9,18.5-17.4,18.5c-9.4,0-16.7-6.9-16.7-17.9c0-11.7,7.6-18.5,17.3-18.5
		C92,26.6,98.8,33.9,98.8,44.6z M71.1,44.9c0,7.6,4.4,13.4,10.6,13.4c6,0,10.6-5.7,10.6-13.5c0-5.9-3-13.4-10.4-13.4
		C74.4,31.4,71.1,38.3,71.1,44.9z"/>
    <path class="st0" d="M136.9,11.1v42.1c0,3.1,0.1,6.6,0.3,9h-5.7l-0.3-6H131c-1.9,3.9-6.2,6.8-11.9,6.8c-8.4,0-14.9-7.1-14.9-17.7
		c-0.1-11.6,7.1-18.7,15.6-18.7c5.3,0,8.9,2.5,10.5,5.3h0.1V11.1H136.9z M130.5,41.6c0-0.8-0.1-1.9-0.3-2.7c-0.9-4-4.4-7.3-9.1-7.3
		c-6.6,0-10.4,5.8-10.4,13.5c0,7.1,3.5,12.9,10.3,12.9c4.2,0,8.1-2.8,9.3-7.6c0.2-0.9,0.3-1.7,0.3-2.7V41.6z"/>
    <path class="st0" d="M150.9,46c0.1,8.6,5.6,12.1,12,12.1c4.5,0,7.3-0.8,9.6-1.8l1.1,4.5c-2.2,1-6,2.2-11.6,2.2
		c-10.7,0-17.1-7.1-17.1-17.6c0-10.5,6.2-18.8,16.3-18.8c11.4,0,14.4,10,14.4,16.4c0,1.3-0.1,2.3-0.2,3H150.9z M169.5,41.5
		c0.1-4-1.7-10.3-8.8-10.3c-6.4,0-9.2,5.9-9.7,10.3H169.5z"/>
  </g>
  <g>
    <path class="st0" d="M192.8,62.3V13.7h6.8l15.6,24.6c3.6,5.7,6.4,10.8,8.7,15.8l0.1-0.1c-0.6-6.5-0.7-12.4-0.7-19.9V13.7h5.9v48.5
		h-6.3l-15.4-24.6c-3.4-5.4-6.6-10.9-9.1-16.2l-0.2,0.1c0.4,6.1,0.5,12,0.5,20v20.7H192.8z"/>
    <path class="st0" d="M243.5,46c0.1,8.6,5.6,12.1,12,12.1c4.5,0,7.3-0.8,9.6-1.8l1.1,4.5c-2.2,1-6,2.2-11.6,2.2
		c-10.7,0-17.1-7.1-17.1-17.6c0-10.5,6.2-18.8,16.3-18.8c11.4,0,14.4,10,14.4,16.4c0,1.3-0.1,2.3-0.2,3H243.5z M262.1,41.5
		c0.1-4-1.7-10.3-8.8-10.3c-6.4,0-9.2,5.9-9.7,10.3H262.1z"/>
    <path class="st0" d="M275.2,55.8c1.9,1.2,5.2,2.5,8.4,2.5c4.6,0,6.8-2.3,6.8-5.2c0-3-1.8-4.7-6.5-6.4c-6.3-2.2-9.2-5.7-9.2-9.9
		c0-5.6,4.5-10.2,12-10.2c3.5,0,6.6,1,8.6,2.2l-1.6,4.6c-1.4-0.9-3.9-2-7.1-2c-3.7,0-5.8,2.2-5.8,4.8c0,2.9,2.1,4.2,6.6,5.9
		c6,2.3,9.1,5.3,9.1,10.5c0,6.1-4.8,10.4-13,10.4c-3.8,0-7.3-0.9-9.8-2.4L275.2,55.8z"/>
    <path class="st0" d="M312.2,17.4v10h9.1v4.8h-9.1V51c0,4.3,1.2,6.8,4.8,6.8c1.7,0,2.9-0.2,3.7-0.4l0.3,4.8
		c-1.2,0.5-3.2,0.9-5.6,0.9c-3,0-5.3-0.9-6.8-2.7c-1.8-1.9-2.4-5-2.4-9.1v-19h-5.4v-4.8h5.4v-8.4L312.2,17.4z"/>
  </g>
  <text transform="matrix(1 0 0 1 0 60.2642)" class="st1 st2 st3">{</text>
  <text transform="matrix(-1 0 0 1 352 62.2642)" class="st1 st2 st3">{</text>
  <rect x="24.1" y="77.2" class="st1" width="75" height="2"/>
  <g>
    <path d="M116.2,82.4c-0.4,0.2-1.3,0.4-2.5,0.4c-2.7,0-4.7-1.7-4.7-4.8c0-3,2-5,4.9-5c1.2,0,1.9,0.3,2.2,0.4l-0.3,1
		c-0.5-0.2-1.1-0.4-1.9-0.4c-2.2,0-3.7,1.4-3.7,3.9c0,2.3,1.3,3.8,3.6,3.8c0.7,0,1.5-0.2,2-0.4L116.2,82.4z"/>
    <path d="M117.7,78c0-0.8,0-1.5-0.1-2.1h1.1l0,1.3h0.1c0.3-0.9,1.1-1.5,1.9-1.5c0.1,0,0.2,0,0.4,0v1.2c-0.1,0-0.3,0-0.4,0
		c-0.9,0-1.5,0.7-1.7,1.6c0,0.2-0.1,0.4-0.1,0.6v3.6h-1.2V78z"/>
    <path d="M122.8,79.5c0,1.7,1.1,2.4,2.3,2.4c0.9,0,1.4-0.2,1.9-0.4l0.2,0.9c-0.4,0.2-1.2,0.4-2.3,0.4c-2.1,0-3.3-1.4-3.3-3.4
		c0-2,1.2-3.7,3.2-3.7c2.2,0,2.8,1.9,2.8,3.2c0,0.3,0,0.4,0,0.6H122.8z M126.4,78.6c0-0.8-0.3-2-1.7-2c-1.2,0-1.8,1.1-1.9,2H126.4z"
		/>
    <path d="M132.9,82.7l-0.1-0.9h0c-0.4,0.5-1.1,1-2.1,1c-1.4,0-2.1-1-2.1-1.9c0-1.6,1.5-2.5,4.1-2.5v-0.1c0-0.6-0.2-1.6-1.5-1.6
		c-0.6,0-1.3,0.2-1.8,0.5l-0.3-0.8c0.6-0.4,1.4-0.6,2.2-0.6c2.1,0,2.6,1.4,2.6,2.8V81c0,0.6,0,1.2,0.1,1.6H132.9z M132.7,79.2
		c-1.3,0-2.9,0.2-2.9,1.5c0,0.8,0.5,1.2,1.2,1.2c0.9,0,1.4-0.6,1.6-1.1c0-0.1,0.1-0.3,0.1-0.4V79.2z"/>
    <path d="M137.3,73.9v1.9h1.8v0.9h-1.8v3.7c0,0.8,0.2,1.3,0.9,1.3c0.3,0,0.6,0,0.7-0.1l0.1,0.9c-0.2,0.1-0.6,0.2-1.1,0.2
		c-0.6,0-1-0.2-1.3-0.5c-0.4-0.4-0.5-1-0.5-1.8v-3.7h-1.1v-0.9h1.1v-1.6L137.3,73.9z"/>
    <path d="M141.8,74c0,0.4-0.3,0.8-0.8,0.8c-0.4,0-0.7-0.3-0.7-0.8c0-0.4,0.3-0.8,0.8-0.8C141.5,73.2,141.8,73.6,141.8,74z
		 M140.5,82.7v-6.8h1.2v6.8H140.5z"/>
    <path d="M144.2,75.9l1.3,3.8c0.2,0.6,0.4,1.2,0.5,1.7h0c0.2-0.6,0.4-1.1,0.6-1.7l1.3-3.8h1.3l-2.7,6.8h-1.2l-2.6-6.8H144.2z"/>
    <path d="M151,79.5c0,1.7,1.1,2.4,2.3,2.4c0.9,0,1.4-0.2,1.9-0.4l0.2,0.9c-0.4,0.2-1.2,0.4-2.3,0.4c-2.1,0-3.3-1.4-3.3-3.4
		c0-2,1.2-3.7,3.2-3.7c2.2,0,2.8,1.9,2.8,3.2c0,0.3,0,0.4,0,0.6H151z M154.6,78.6c0-0.8-0.3-2-1.7-2c-1.2,0-1.8,1.1-1.9,2H154.6z"/>
    <path d="M166.3,82.7c-0.3-0.3-0.5-0.5-0.9-0.9c-0.8,0.8-1.7,1.1-2.8,1.1c-1.8,0-2.9-1.2-2.9-2.6c0-1.3,0.8-2.2,1.8-2.8v0
		c-0.5-0.6-0.8-1.3-0.8-2c0-1.1,0.8-2.3,2.4-2.3c1.2,0,2.1,0.8,2.1,2c0,1-0.6,1.8-2.1,2.5v0c0.8,0.9,1.7,2,2.3,2.6
		c0.4-0.7,0.7-1.6,0.9-2.8h1.1c-0.3,1.5-0.7,2.7-1.4,3.5c0.5,0.5,1,1.1,1.6,1.7H166.3z M164.8,81c-0.6-0.6-1.6-1.8-2.7-3
		c-0.5,0.3-1.2,0.9-1.2,1.9c0,1.1,0.8,1.9,1.9,1.9C163.6,81.9,164.3,81.5,164.8,81z M161.9,75.3c0,0.7,0.3,1.2,0.7,1.7
		c1-0.5,1.6-1,1.6-1.8c0-0.6-0.3-1.2-1.1-1.2C162.3,73.9,161.9,74.6,161.9,75.3z"/>
    <path d="M173,73.2v9.4h-1.2v-9.4H173z"/>
    <path d="M175.2,77.7c0-0.7,0-1.3-0.1-1.8h1.1l0.1,1.1h0c0.3-0.6,1.1-1.3,2.2-1.3c0.9,0,2.4,0.6,2.4,2.9v4h-1.2v-3.9
		c0-1.1-0.4-2-1.6-2c-0.8,0-1.4,0.6-1.7,1.3c-0.1,0.2-0.1,0.4-0.1,0.6v4.1h-1.2V77.7z"/>
    <path d="M184.4,73.9v1.9h1.8v0.9h-1.8v3.7c0,0.8,0.2,1.3,0.9,1.3c0.3,0,0.6,0,0.7-0.1l0.1,0.9c-0.2,0.1-0.6,0.2-1.1,0.2
		c-0.6,0-1-0.2-1.3-0.5c-0.4-0.4-0.5-1-0.5-1.8v-3.7h-1.1v-0.9h1.1v-1.6L184.4,73.9z"/>
    <path d="M188.2,79.5c0,1.7,1.1,2.4,2.3,2.4c0.9,0,1.4-0.2,1.9-0.4l0.2,0.9c-0.4,0.2-1.2,0.4-2.3,0.4c-2.1,0-3.3-1.4-3.3-3.4
		c0-2,1.2-3.7,3.2-3.7c2.2,0,2.8,1.9,2.8,3.2c0,0.3,0,0.4,0,0.6H188.2z M191.8,78.6c0-0.8-0.3-2-1.7-2c-1.2,0-1.8,1.1-1.9,2H191.8z"
		/>
    <path d="M194.5,72.7h1.2v9.9h-1.2V72.7z"/>
    <path d="M197.8,72.7h1.2v9.9h-1.2V72.7z"/>
    <path d="M202.5,74c0,0.4-0.3,0.8-0.8,0.8c-0.4,0-0.7-0.3-0.7-0.8c0-0.4,0.3-0.8,0.8-0.8C202.2,73.2,202.5,73.6,202.5,74z
		 M201.1,82.7v-6.8h1.2v6.8H201.1z"/>
    <path d="M210.2,75.9c0,0.5-0.1,1-0.1,1.9v3.9c0,1.6-0.3,2.5-1,3.1c-0.7,0.6-1.6,0.8-2.5,0.8c-0.8,0-1.7-0.2-2.3-0.6l0.3-0.9
		c0.4,0.3,1.1,0.5,2,0.5c1.3,0,2.2-0.7,2.2-2.4v-0.8h0c-0.4,0.6-1.1,1.1-2.2,1.1c-1.7,0-2.9-1.4-2.9-3.3c0-2.3,1.5-3.6,3.1-3.6
		c1.2,0,1.8,0.6,2.1,1.2h0l0.1-1H210.2z M209,78.6c0-0.2,0-0.4-0.1-0.6c-0.2-0.7-0.8-1.3-1.7-1.3c-1.2,0-2,1-2,2.6
		c0,1.3,0.7,2.4,2,2.4c0.8,0,1.4-0.5,1.7-1.3c0.1-0.2,0.1-0.4,0.1-0.7V78.6z"/>
    <path d="M212.9,79.5c0,1.7,1.1,2.4,2.3,2.4c0.9,0,1.4-0.2,1.9-0.4l0.2,0.9c-0.4,0.2-1.2,0.4-2.3,0.4c-2.1,0-3.3-1.4-3.3-3.4
		c0-2,1.2-3.7,3.2-3.7c2.2,0,2.8,1.9,2.8,3.2c0,0.3,0,0.4,0,0.6H212.9z M216.5,78.6c0-0.8-0.3-2-1.7-2c-1.2,0-1.8,1.1-1.9,2H216.5z"
		/>
    <path d="M219.2,77.7c0-0.7,0-1.3-0.1-1.8h1.1l0.1,1.1h0c0.3-0.6,1.1-1.3,2.2-1.3c0.9,0,2.4,0.6,2.4,2.9v4h-1.2v-3.9
		c0-1.1-0.4-2-1.6-2c-0.8,0-1.4,0.6-1.7,1.3c-0.1,0.2-0.1,0.4-0.1,0.6v4.1h-1.2V77.7z"/>
    <path d="M231.8,82.4c-0.3,0.2-1,0.4-1.9,0.4c-2,0-3.4-1.4-3.4-3.5c0-2.1,1.4-3.6,3.6-3.6c0.7,0,1.4,0.2,1.7,0.4l-0.3,1
		c-0.3-0.2-0.8-0.3-1.4-0.3c-1.6,0-2.4,1.1-2.4,2.6c0,1.6,1,2.5,2.4,2.5c0.7,0,1.2-0.2,1.5-0.3L231.8,82.4z"/>
    <path d="M233.9,79.5c0,1.7,1.1,2.4,2.3,2.4c0.9,0,1.4-0.2,1.9-0.4l0.2,0.9c-0.4,0.2-1.2,0.4-2.3,0.4c-2.1,0-3.3-1.4-3.3-3.4
		c0-2,1.2-3.7,3.2-3.7c2.2,0,2.8,1.9,2.8,3.2c0,0.3,0,0.4,0,0.6H233.9z M237.5,78.6c0-0.8-0.3-2-1.7-2c-1.2,0-1.8,1.1-1.9,2H237.5z"
		/>
  </g>
  <rect x="249.1" y="78.2" class="st1" width="75" height="2"/>
</svg>
