<?xml version="1.0" encoding="utf-8"?>
<!-- Generator: Adobe Illustrator 21.0.0, SVG Export Plug-In . SVG Version: 6.00 Build 0)  -->
<svg version="1.1" id="Layer_1" xmlns="http://www.w3.org/2000/svg" xmlns:xlink="http://www.w3.org/1999/xlink" x="0px" y="0px"
	 viewBox="0 0 100 74" style="enable-background:new 0 0 100 74;" xml:space="preserve">
  <style type="text/css">.st0{fill:#070707;}</style>
  <g>
    <path d="M5,19.5c-2.5,0-4.5-2-4.5-4.5V5c0-2.5,2-4.5,4.5-4.5h90c2.5,0,4.5,2,4.5,4.5v10c0,2.5-2,4.5-4.5,4.5H5z"/>
    <path d="M95,1c2.2,0,4,1.8,4,4v10c0,2.2-1.8,4-4,4H5c-2.2,0-4-1.8-4-4V5c0-2.2,1.8-4,4-4H95 M95,0H5C2.2,0,0,2.2,0,5v10
		c0,2.8,2.2,5,5,5h90c2.8,0,5-2.2,5-5V5C100,2.2,97.8,0,95,0L95,0z"/>
  </g>
  <g>
    <path d="M5,46.5c-2.5,0-4.5-2-4.5-4.5V32c0-2.5,2-4.5,4.5-4.5h90c2.5,0,4.5,2,4.5,4.5v10c0,2.5-2,4.5-4.5,4.5H5z"/>
    <path d="M95,28c2.2,0,4,1.8,4,4v10c0,2.2-1.8,4-4,4H5c-2.2,0-4-1.8-4-4V32c0-2.2,1.8-4,4-4H95 M95,27H5c-2.8,0-5,2.2-5,5v10
		c0,2.8,2.2,5,5,5h90c2.8,0,5-2.2,5-5V32C100,29.2,97.8,27,95,27L95,27z"/>
  </g>
  <g>
    <path class="st0" d="M5,73.5c-2.5,0-4.5-2-4.5-4.5V59c0-2.5,2-4.5,4.5-4.5h90c2.5,0,4.5,2,4.5,4.5v10c0,2.5-2,4.5-4.5,4.5H5z"/>
    <path d="M95,56c2.2,0,4,1.7,4,3.8v9.5c0,2.1-1.8,3.8-4,3.8H5c-2.2,0-4-1.7-4-3.8v-9.5C1,57.7,2.8,56,5,56H95 M95,55H5
		c-2.8,0-5,2.1-5,4.8v9.5C0,71.9,2.2,74,5,74h90c2.8,0,5-2.1,5-4.8v-9.5C100,57.1,97.8,55,95,55L95,55z"/>
  </g>
</svg>
