<?xml version="1.0" encoding="utf-8"?>
<!-- Generator: Adobe Illustrator 21.0.0, SVG Export Plug-In . SVG Version: 6.00 Build 0)  -->
<svg version="1.1" id="Layer_1" xmlns="http://www.w3.org/2000/svg" xmlns:xlink="http://www.w3.org/1999/xlink" x="0px" y="0px"
	 viewBox="0 0 100 74" style="enable-background:new 0 0 100 74;" xml:space="preserve">
  <style type="text/css">.st0{fill:#FFFFFF;}</style>
  <g>
    <path class="st0" d="M5,19.5c-2.5,0-4.5-2-4.5-4.5V5c0-2.5,2-4.5,4.5-4.5h90c2.5,0,4.5,2,4.5,4.5v10c0,2.5-2,4.5-4.5,4.5H5z"/>
    <path class="st0" d="M95,1c2.2,0,4,1.8,4,4v10c0,2.2-1.8,4-4,4H5c-2.2,0-4-1.8-4-4V5c0-2.2,1.8-4,4-4H95 M95,0H5C2.2,0,0,2.2,0,5
		v10c0,2.8,2.2,5,5,5h90c2.8,0,5-2.2,5-5V5C100,2.2,97.8,0,95,0L95,0z"/>
  </g>
  <g>
    <path class="st0" d="M5,46.5c-2.5,0-4.5-2-4.5-4.5V32c0-2.5,2-4.5,4.5-4.5h90c2.5,0,4.5,2,4.5,4.5v10c0,2.5-2,4.5-4.5,4.5H5z"/>
    <path class="st0" d="M95,28c2.2,0,4,1.8,4,4v10c0,2.2-1.8,4-4,4H5c-2.2,0-4-1.8-4-4V32c0-2.2,1.8-4,4-4H95 M95,27H5
		c-2.8,0-5,2.2-5,5v10c0,2.8,2.2,5,5,5h90c2.8,0,5-2.2,5-5V32C100,29.2,97.8,27,95,27L95,27z"/>
  </g>
  <g>
    <path class="st0" d="M5,73.5c-2.5,0-4.5-2-4.5-4.5V59c0-2.5,2-4.5,4.5-4.5h90c2.5,0,4.5,2,4.5,4.5v10c0,2.5-2,4.5-4.5,4.5H5z"/>
    <path class="st0" d="M95,55c2.2,0,4,1.8,4,4v10c0,2.2-1.8,4-4,4H5c-2.2,0-4-1.8-4-4V59c0-2.2,1.8-4,4-4H95 M95,54H5
		c-2.8,0-5,2.2-5,5v10c0,2.8,2.2,5,5,5h90c2.8,0,5-2.2,5-5V59C100,56.2,97.8,54,95,54L95,54z"/>
  </g>
</svg>
